<svg id="Cover" xmlns="http://www.w3.org/2000/svg" xmlns:xlink="http://www.w3.org/1999/xlink" viewBox="0 0 612 612"><defs><style>.cls-1{fill:#36374b;}.cls-14,.cls-2{fill:none;}.cls-12,.cls-13,.cls-3,.cls-8{fill:#fff;}.cls-3{opacity:0.8;}.cls-4{fill:#7259ac;}.cls-5{fill:url(#linear-gradient);}.cls-6{fill:#edaeb7;}.cls-7{fill:url(#linear-gradient-2);}.cls-10,.cls-11,.cls-9{fill:#ffefb8;}.cls-12,.cls-9{opacity:0.25;}.cls-10,.cls-13{opacity:0.5;}.cls-14{stroke:#fff;stroke-miterlimit:10;stroke-width:4px;}</style><linearGradient id="linear-gradient" x1="121.5" y1="357" x2="121.5" y2="612" gradientUnits="userSpaceOnUse"><stop offset="0" stop-color="#edaeb7"/><stop offset="0.52" stop-color="#ae83b1"/><stop offset="1" stop-color="#7259ac"/></linearGradient><linearGradient id="linear-gradient-2" x1="490.5" y1="294.9" x2="490.5" y2="612" gradientUnits="userSpaceOnUse"><stop offset="0" stop-color="#edaeb7"/><stop offset="0.24" stop-color="#c894b4"/><stop offset="0.59" stop-color="#9a74b0"/><stop offset="0.85" stop-color="#7d60ad"/><stop offset="1" stop-color="#7259ac"/></linearGradient></defs><title>lumiere</title><rect id="Bg" class="cls-1" width="612" height="612"/><g id="Stars"><rect class="cls-2" x="289.12" y="568.74" width="3.14" height="3.14"/><circle class="cls-3" cx="290.69" cy="570.31" r="1.57"/><rect class="cls-2" x="497.52" y="419.51" width="3.09" height="3.09"/><circle class="cls-3" cx="499.06" cy="421.05" r="1.54"/><rect class="cls-2" x="523.33" y="557.99" width="3.01" height="3.01"/><circle class="cls-3" cx="524.84" cy="559.5" r="1.5"/><rect class="cls-2" x="125.97" y="421.05" width="3.22" height="3.22"/><circle class="cls-3" cx="127.58" cy="422.66" r="1.61"/><rect class="cls-2" x="67.92" y="483.35" width="2.67" height="2.67"/><circle class="cls-3" cx="69.25" cy="484.68" r="1.33"/><rect class="cls-2" x="54.51" y="48.02" width="4.98" height="4.98"/><circle class="cls-3" cx="57" cy="50.51" r="2.49"/><rect class="cls-2" x="550.48" y="387.86" width="3.92" height="3.92"/><circle class="cls-3" cx="552.44" cy="389.82" r="1.96"/><rect class="cls-2" x="314.44" y="171.93" width="3.12" height="3.12"/><circle class="cls-3" cx="316" cy="173.49" r="1.56"/><rect class="cls-2" x="583.13" y="299.3" width="3.73" height="3.73"/><circle class="cls-3" cx="585" cy="301.17" r="1.87"/><rect class="cls-2" x="23.67" y="404.67" width="4.66" height="4.66"/><circle class="cls-3" cx="26" cy="407" r="2.33"/><rect class="cls-2" x="103.29" y="338.6" width="4.39" height="4.39"/><circle class="cls-3" cx="105.48" cy="340.79" r="2.19"/><rect class="cls-2" x="490.48" y="76.33" width="4.93" height="4.93"/><circle class="cls-3" cx="492.95" cy="78.8" r="2.47"/><rect class="cls-2" x="116.88" y="585.35" width="4.15" height="4.15"/><circle class="cls-3" cx="118.96" cy="587.42" r="2.08"/><rect class="cls-2" x="397.97" y="153.02" width="4.05" height="4.05"/><circle class="cls-3" cx="400" cy="155.05" r="2.03"/><rect class="cls-2" x="264.66" y="460.73" width="3.28" height="3.28"/><circle class="cls-3" cx="266.31" cy="462.37" r="1.64"/><rect class="cls-2" x="187.06" y="369.52" width="4.94" height="4.94"/><circle class="cls-3" cx="189.53" cy="371.99" r="2.47"/><rect class="cls-2" x="201.59" y="178.78" width="4.82" height="4.82"/><circle class="cls-3" cx="204" cy="181.19" r="2.41"/><rect class="cls-2" x="26" y="166.34" width="3.45" height="3.45"/><circle class="cls-3" cx="27.73" cy="168.06" r="1.73"/><rect class="cls-2" x="38.06" y="312.49" width="2.98" height="2.98"/><circle class="cls-3" cx="39.55" cy="313.98" r="1.49"/><rect class="cls-2" x="545.89" y="213.73" width="3.2" height="3.2"/><circle class="cls-3" cx="547.49" cy="215.33" r="1.6"/><rect class="cls-2" x="266.31" y="116.46" width="3.39" height="3.39"/><circle class="cls-3" cx="268" cy="118.16" r="1.69"/><rect class="cls-2" x="581.02" y="582.89" width="4.23" height="4.23"/><circle class="cls-3" cx="583.13" cy="585" r="2.11"/><rect class="cls-2" x="236.08" y="591.53" width="2.93" height="2.93"/><circle class="cls-3" cx="237.55" cy="593" r="1.47"/><rect class="cls-2" x="467.18" y="571.87" width="3.43" height="3.43"/><circle class="cls-3" cx="468.89" cy="573.59" r="1.71"/><rect class="cls-2" x="556.79" y="459.94" width="4.85" height="4.85"/><circle class="cls-3" cx="559.22" cy="462.37" r="2.43"/><rect class="cls-2" x="348.58" y="511.08" width="4.85" height="4.85"/><circle class="cls-3" cx="351" cy="513.5" r="2.42"/><rect class="cls-2" x="26.27" y="535.81" width="4.12" height="4.12"/><circle class="cls-3" cx="28.33" cy="537.87" r="2.06"/><rect class="cls-2" x="432.3" y="397.48" width="3.4" height="3.4"/><circle class="cls-3" cx="434" cy="399.18" r="1.7"/><rect class="cls-2" x="367.91" y="429.68" width="3.27" height="3.27"/><circle class="cls-3" cx="369.54" cy="431.31" r="1.64"/><rect class="cls-2" x="493.61" y="335.23" width="3.61" height="3.61"/><circle class="cls-3" cx="495.42" cy="337.03" r="1.81"/><rect class="cls-2" x="303.85" y="378.01" width="4.3" height="4.3"/><circle class="cls-3" cx="306" cy="380.16" r="2.15"/><rect class="cls-2" x="562.85" y="26.7" width="4.3" height="4.3"/><circle class="cls-3" cx="565" cy="28.85" r="2.15"/></g><g id="mounts"><polygon class="cls-4" points="214 414 259 613 0 613 214 414"/><polygon class="cls-5" points="128 357 243 612 0 612 0 473 128 357"/><polygon class="cls-6" points="0 309 243 612 0 612 0 309"/><polygon class="cls-4" points="416.96 367.81 369 612 612 612 416.96 367.81"/><polygon class="cls-7" points="561.65 294.89 369 612 612 612 561.65 294.89"/><polygon class="cls-6" points="612 378.78 369 612 612 612 612 378.78"/></g><path class="cls-8" d="M128.1,257.94c5,0,5.7-1,5.7-7v-19.5c0-6-.72-7-5.7-7v-1.26h16.2v1.26c-5,0-5.7,1-5.7,7V250c0,6,.72,7,5.7,7h7.2c5.46,0,6.12-1.38,6.9-4.56l.3-1.2H160l-.48,8H128.1Z"/><path class="cls-8" d="M203.46,224.46v-1.26h14v1.26c-5,0-5.76,1-5.76,7v14.4c0,9.42-6.48,14.4-14.46,14.4s-14.4-5-14.4-14.4v-14.4c0-6-.72-7-5.7-7v-1.26h16.2v1.26c-5,0-5.7,1-5.7,7v14.7c0,7.8,4.5,11.4,10.5,11.4,6.3,0,11-3.6,11-11.4v-14.7C209.22,225.42,208.44,224.46,203.46,224.46Z"/><path class="cls-8" d="M247,250.92c0,6,.78,7,5.76,7v1.26H239v-1.26c5,0,5.7-1,5.7-7v-19.5c0-6-.72-7-5.7-7v-1.26h10.2L262,252.42l12.66-29.22H284v1.26c-5,0-5.76,1-5.76,7v19.5c0,6,.72,7,5.76,7v1.26h-16.2v-1.26c5,0,5.7-1,5.7-7V231.36l-12.48,28.86h-.78L247,229.56Z"/><path class="cls-8" d="M306.54,259.2v-1.26c5,0,5.7-1,5.7-7v-19.5c0-6-.72-7-5.7-7v-1.26h16.2v1.26c-5,0-5.7,1-5.7,7v19.5c0,6,.72,7,5.7,7v1.26Z"/><path class="cls-8" d="M345.3,257.94c5,0,5.7-1,5.7-7v-19.5c0-6-.72-7-5.7-7v-1.26h27.36l.54,7.92h-1.26l-.3-1.2c-.84-3.12-1.44-4.5-7-4.5H355.8V239h3c6,0,7-.72,7-5.76H367V247h-1.26c0-5-1-5.76-7-5.76h-3V250c0,6,.72,7,5.7,7h5.16c5.52,0,6.18-1.38,7-4.56l.3-1.2h1.26l-.48,8H345.3Zm17-39.18L354,215.23a2.33,2.33,0,0,1-1.38-1.8,1.72,1.72,0,0,1,1.68-1.74c1,0,1.68.54,2.7,1.44l5.58,5.22Z"/><path class="cls-8" d="M422.22,250.32c3.54,4.2,7.56,7.2,11.16,7.62v1.26h-9.9L411.6,243.42h-2.82v7.5c0,6,.72,7,5.7,7v1.26h-16.2v-1.26c5,0,5.7-1,5.7-7v-19.5c0-6-.72-7-5.7-7v-1.26h15.84c8.34,0,12.9,4.56,12.9,10.14,0,5.22-3.9,9.36-10.68,10.08Zm-.54-17c0-4.32-2.4-7.92-7.62-7.92h-5.28v15.84h5.28C419.28,241.26,421.68,237.72,421.68,233.34Z"/><path class="cls-8" d="M453.48,257.94c5,0,5.7-1,5.7-7v-19.5c0-6-.72-7-5.7-7v-1.26h27.36l.54,7.92h-1.26l-.3-1.2c-.84-3.12-1.44-4.5-7-4.5H464V239h3c6,0,7-.72,7-5.76h1.26V247h-1.26c0-5-1-5.76-7-5.76h-3V250c0,6,.72,7,5.7,7h5.16c5.52,0,6.18-1.38,7-4.56l.3-1.2h1.26l-.48,8h-29.4Z"/><path class="cls-8" d="M138.17,312.06a5.38,5.38,0,0,1-5.79,5.78,5.51,5.51,0,0,1-5.34-3.45l.78-.42a4.61,4.61,0,0,0,1.8,2.29,5.1,5.1,0,0,0,2.85.8,4.67,4.67,0,0,0,3.54-1.32,5.12,5.12,0,0,0,1.26-3.69,4.53,4.53,0,0,0-1.14-3.21,11.78,11.78,0,0,0-3.21-2.16,18,18,0,0,1-3.75-2.43,4.7,4.7,0,0,1,.06-6.65,5.15,5.15,0,0,1,3.66-1.32,4.54,4.54,0,0,1,4.08,2.07l-.69.42a4,4,0,0,0-7.44,2.21,4.1,4.1,0,0,0,2.1,3.53l2.88,1.62a10.5,10.5,0,0,1,3.27,2.4A5.43,5.43,0,0,1,138.17,312.06Z"/><path class="cls-8" d="M160.49,297.68h-5.91v19.65h-1V297.68h-5.91v-.87h12.81Z"/><path class="cls-8" d="M185.54,309.69q0,4.1-1.82,6.13t-5.5,2q-7.32,0-7.32-8.15V296.81h1v13.51a7.24,7.24,0,0,0,1.55,5.08,6.24,6.24,0,0,0,4.78,1.66q6.33,0,6.33-6.74V296.81h1Z"/><path class="cls-8" d="M213.65,307.09q0,5.74-3.45,8.35a8.53,8.53,0,0,1-3.84,1.62,28.32,28.32,0,0,1-4.56.27H198V296.81h2.85q3.51,0,4.8.15a9.15,9.15,0,0,1,3.78,1.2,8,8,0,0,1,3.07,3.53A12.54,12.54,0,0,1,213.65,307.09Zm-1.11,0a13.06,13.06,0,0,0-.6-4.1,8.76,8.76,0,0,0-1.71-3.08,6.61,6.61,0,0,0-3.54-2,23.69,23.69,0,0,0-4.86-.36H199v19.14h3.36a27.39,27.39,0,0,0,3.78-.18,6.63,6.63,0,0,0,2.91-1.14,7.71,7.71,0,0,0,2.54-3.3A12.42,12.42,0,0,0,212.54,307.06Z"/><path class="cls-8" d="M234.92,317.33h-9.66V296.81h9.66v.87h-8.67v7.71h8.67v.87h-8.67v10.2h8.67Z"/><path class="cls-8" d="M263,317.12l-15.06-18v18.18h-1V296.71L262,314.63V296.81h1Z"/><path class="cls-8" d="M286.31,297.68H280.4v19.65h-1V297.68H273.5v-.87h12.81Z"/><path class="cls-8" d="M321.38,312.06a5.38,5.38,0,0,1-5.79,5.78,5.51,5.51,0,0,1-5.34-3.45L311,314a4.61,4.61,0,0,0,1.8,2.29,5.09,5.09,0,0,0,2.85.8,4.66,4.66,0,0,0,3.54-1.32,5.12,5.12,0,0,0,1.26-3.69,4.53,4.53,0,0,0-1.14-3.21,11.77,11.77,0,0,0-3.21-2.16,18,18,0,0,1-3.75-2.43,4.7,4.7,0,0,1,.06-6.65,5.15,5.15,0,0,1,3.66-1.32,4.54,4.54,0,0,1,4.08,2.07l-.69.42A4,4,0,0,0,312,301a4.1,4.1,0,0,0,2.1,3.53l2.88,1.62a10.5,10.5,0,0,1,3.27,2.4A5.43,5.43,0,0,1,321.38,312.06Z"/><path class="cls-8" d="M342.64,317.33H333V296.81h9.66v.87H334v7.71h8.67v.87H334v10.2h8.67Z"/><path class="cls-8" d="M363,317.33h-8.34V296.81h1v19.65H363Z"/><path class="cls-8" d="M383,317.33h-9.66V296.81H383v.87h-8.67v7.71H383v.87h-8.67v10.2H383Z"/><path class="cls-8" d="M411.34,298.35l0,1a10.1,10.1,0,0,0-6.3-2.22,9.53,9.53,0,0,0-7.12,2.77,10.91,10.91,0,0,0,0,14.41,9.24,9.24,0,0,0,6.85,2.74,11.31,11.31,0,0,0,6.45-2l0,1a12.26,12.26,0,0,1-6.33,1.78,10.62,10.62,0,0,1-7.74-3,11.26,11.26,0,0,1,0-15.47,11.48,11.48,0,0,1,14.22-1Z"/><path class="cls-8" d="M433.51,297.68H427.6v19.65h-1V297.68H420.7v-.87h12.81Z"/><path class="cls-8" d="M463.3,307.1a10.2,10.2,0,0,1-3.23,7.61,10.78,10.78,0,0,1-7.78,3.13,11.12,11.12,0,0,1-4.22-.81,10.88,10.88,0,0,1-3.55-2.33,10.69,10.69,0,0,1,0-15.24,11.39,11.39,0,0,1,15.6,0,10.2,10.2,0,0,1,2.4,3.48A10.82,10.82,0,0,1,463.3,307.1Zm-1.11,0a9.7,9.7,0,0,0-2.88-7.1,9.9,9.9,0,0,0-14,0,10.19,10.19,0,0,0,0,14.17,9.93,9.93,0,0,0,14,0A9.66,9.66,0,0,0,462.19,307.09Z"/><path class="cls-8" d="M486.43,317.33h-1.15l-7.53-10.27h-1.87v10.26h-1V296.81h3.45q6.48,0,6.48,5.37a4.47,4.47,0,0,1-1.5,3.63,7,7,0,0,1-4.59,1.26Zm-2.76-15.22a4.4,4.4,0,0,0-1.23-3.55,6.52,6.52,0,0,0-4.14-1h-2.43v8.91h2.43a7,7,0,0,0,4-.87A4.07,4.07,0,0,0,483.67,302.11Z"/><g id="lights"><circle class="cls-9" cx="306" cy="45.2" r="83.19"/><circle class="cls-10" cx="306" cy="45.2" r="64.57"/><circle class="cls-11" cx="306" cy="45.2" r="50.2"/><circle class="cls-12" cx="556.79" cy="202.81" r="33.19"/><circle class="cls-13" cx="556.79" cy="202.81" r="23.6"/><circle class="cls-8" cx="556.79" cy="202.81" r="14.03"/><circle class="cls-12" cx="49.14" cy="249.15" r="33.19"/><circle class="cls-13" cx="49.14" cy="249.15" r="23.6"/><circle class="cls-8" cx="49.14" cy="249.15" r="14.03"/><circle class="cls-12" cx="142.53" cy="120.91" r="33.19"/><circle class="cls-13" cx="142.53" cy="120.91" r="23.6"/><circle class="cls-8" cx="142.53" cy="120.91" r="14.03"/><line class="cls-14" x1="49.14" y1="248.05" x2="49.14"/><line class="cls-14" x1="142.53" y1="121.94" x2="142.53"/><line class="cls-14" x1="556.79" y1="202.81" x2="556.79"/></g></svg>